<svg xmlns="http://www.w3.org/2000/svg" width="112" height="121" viewBox="0 0 112 121" fill="none"><defs><linearGradient id="tileFill" x1="20" y1="22" x2="95" y2="109" gradientUnits="userSpaceOnUse"><stop offset="0" stop-color="#3A1F2B"/><stop offset="0.52" stop-color="#2D1925"/><stop offset="1" stop-color="#211421"/></linearGradient><radialGradient id="tileGlow" cx="0" cy="0" r="1" gradientUnits="userSpaceOnUse" gradientTransform="translate(55 46) rotate(90) scale(55 59)"><stop offset="0" stop-color="#6A2A3C" stop-opacity="0.34"/><stop offset="0.68" stop-color="#472130" stop-opacity="0.11"/><stop offset="1" stop-color="#1B1220" stop-opacity="0"/></radialGradient><linearGradient id="alertFill" x1="42" y1="44" x2="73" y2="82" gradientUnits="userSpaceOnUse"><stop offset="0" stop-color="#F06A72"/><stop offset="0.48" stop-color="#DC4F5B"/><stop offset="1" stop-color="#BE3546"/></linearGradient><radialGradient id="alertHighlight" cx="0" cy="0" r="1" gradientUnits="userSpaceOnUse" gradientTransform="translate(48 49) rotate(45) scale(25 29)"><stop offset="0" stop-color="#FF9398" stop-opacity="0.56"/><stop offset="0.58" stop-color="#E45A64" stop-opacity="0.12"/><stop offset="1" stop-color="#C13A49" stop-opacity="0"/></radialGradient><filter id="tileShadow" x="4" y="13" width="105" height="106" filterUnits="userSpaceOnUse"><feDropShadow dx="0" dy="3" stdDeviation="5" flood-color="#090B12" flood-opacity="0.58"/></filter><filter id="alertGlow" x="29" y="35" width="57" height="56" filterUnits="userSpaceOnUse"><feGaussianBlur stdDeviation="2.1" result="blur"/><feFlood flood-color="#E6505E" flood-opacity="0.27" result="flood"/><feComposite in="flood" in2="blur" operator="in" result="glow"/><feMerge><feMergeNode in="glow"/><feMergeNode in="SourceGraphic"/></feMerge></filter></defs><g filter="url(#tileShadow)"><rect x="12" y="18" width="92" height="91" rx="19" fill="url(#tileFill)"/><rect x="12" y="18" width="92" height="91" rx="19" fill="url(#tileGlow)"/></g><g filter="url(#alertGlow)"><path d="M53 43.5C54.7 40.6 58.9 40.6 60.6 43.5L78.8 75C80.5 78 78.4 81.7 75 81.7H38.6C35.2 81.7 33.1 78 34.8 75Z" fill="url(#alertFill)"/><path d="M53 43.5C54.7 40.6 58.9 40.6 60.6 43.5L78.8 75C80.5 78 78.4 81.7 75 81.7H38.6C35.2 81.7 33.1 78 34.8 75Z" fill="url(#alertHighlight)"/></g><rect x="54.7" y="54.3" width="4.3" height="13.5" rx="2.15" fill="#20131A"/><circle cx="56.85" cy="73.3" r="2.35" fill="#20131A"/></svg>