<svg xmlns="http://www.w3.org/2000/svg" width="112" height="121" viewBox="0 0 112 121"><defs><linearGradient id="tileFill" x1="23" y1="27" x2="90" y2="97" gradientUnits="userSpaceOnUse"><stop offset="0" stop-color="#6238B2"/><stop offset="0.50" stop-color="#4A278F"/><stop offset="1" stop-color="#321966"/></linearGradient><radialGradient id="tileGlow" cx="0" cy="0" r="1" gradientUnits="userSpaceOnUse" gradientTransform="translate(48 40) rotate(46) scale(61 55)"><stop offset="0" stop-color="#8A5AD6" stop-opacity="0.44"/><stop offset="0.62" stop-color="#6438AF" stop-opacity="0.14"/><stop offset="1" stop-color="#321966" stop-opacity="0"/></radialGradient><linearGradient id="chainStroke" x1="40" y1="79" x2="74" y2="43" gradientUnits="userSpaceOnUse"><stop offset="0" stop-color="#DDD0FF"/><stop offset="0.48" stop-color="#FFFFFF"/><stop offset="1" stop-color="#D8C7FF"/></linearGradient><filter id="tileShadow" x="-30%" y="-30%" width="160%" height="170%"><feDropShadow dx="0" dy="3" stdDeviation="4.2" flood-color="#080B18" flood-opacity="0.58"/></filter><filter id="chainGlow" x="-60%" y="-60%" width="220%" height="220%"><feDropShadow dx="0" dy="0" stdDeviation="1.3" flood-color="#C9B0FF" flood-opacity="0.55"/></filter></defs><g filter="url(#tileShadow)"><rect x="21" y="26" width="70" height="71" rx="14" fill="url(#tileFill)"/><rect x="21" y="26" width="70" height="71" rx="14" fill="url(#tileGlow)"/></g><g transform="translate(33 38) scale(1.9)" fill="none" stroke="url(#chainStroke)" stroke-width="1.8" stroke-linecap="round" stroke-linejoin="round" filter="url(#chainGlow)"><path d="M10 13A5 5 0 0 0 17.54 13.54L20.54 10.54A5 5 0 0 0 13.47 3.47L11.75 5.18"/><path d="M14 11A5 5 0 0 0 6.46 10.46L3.46 13.46A5 5 0 0 0 10.53 20.53L12.24 18.82"/></g></svg>