<svg xmlns="http://www.w3.org/2000/svg" viewBox="0 0 320 300" preserveAspectRatio="none">
  <defs>
    <linearGradient id="purple" x1="0" y1="0" x2="1" y2="0">
      <stop offset="0" stop-color="#8b5cf6" stop-opacity="0"/>
      <stop offset="0.14" stop-color="#8b5cf6" stop-opacity="0.62"/>
      <stop offset="0.52" stop-color="#a855f7" stop-opacity="0.95"/>
      <stop offset="0.84" stop-color="#7c3aed" stop-opacity="0.54"/>
      <stop offset="1" stop-color="#7c3aed" stop-opacity="0"/>
    </linearGradient>
    <linearGradient id="blue" x1="0" y1="0" x2="1" y2="0">
      <stop offset="0" stop-color="#2563eb" stop-opacity="0"/>
      <stop offset="0.16" stop-color="#3b82f6" stop-opacity="0.52"/>
      <stop offset="0.58" stop-color="#4f8cff" stop-opacity="0.86"/>
      <stop offset="0.88" stop-color="#2563eb" stop-opacity="0.46"/>
      <stop offset="1" stop-color="#2563eb" stop-opacity="0"/>
    </linearGradient>
    <radialGradient id="hazePurple">
      <stop offset="0" stop-color="#a855f7" stop-opacity="0.20"/>
      <stop offset="1" stop-color="#a855f7" stop-opacity="0"/>
    </radialGradient>
    <radialGradient id="hazeBlue">
      <stop offset="0" stop-color="#3b82f6" stop-opacity="0.15"/>
      <stop offset="1" stop-color="#3b82f6" stop-opacity="0"/>
    </radialGradient>
    <filter id="nodeGlow" x="-300%" y="-300%" width="700%" height="700%">
      <feGaussianBlur stdDeviation="2.4" result="blur"/>
      <feMerge><feMergeNode in="blur"/><feMergeNode in="SourceGraphic"/></feMerge>
    </filter>
  </defs>

  <ellipse cx="168" cy="156" rx="132" ry="108" fill="url(#hazePurple)"/>
  <ellipse cx="235" cy="138" rx="108" ry="92" fill="url(#hazeBlue)"/>

  <g fill="none" stroke-linecap="round">
    <path d="M-20 178 C38 83 82 247 145 151 S249 75 340 148" stroke="url(#purple)" stroke-width="1.45"/>
    <path d="M-20 215 C45 122 91 279 163 187 S265 105 340 174" stroke="url(#blue)" stroke-width="1.2"/>
    <path d="M-20 136 C39 55 95 219 157 119 S253 166 340 82" stroke="url(#purple)" stroke-width="0.95" opacity="0.92"/>
    <path d="M-20 235 C58 156 103 274 174 204 S272 110 340 133" stroke="url(#purple)" stroke-width="0.78" opacity="0.78"/>
    <path d="M-20 188 C48 111 105 251 184 151 S275 156 340 112" stroke="url(#blue)" stroke-width="0.84" opacity="0.82"/>
    <path d="M-20 198 C26 143 58 236 108 173 C146 126 186 223 229 160 C270 101 300 161 340 121" stroke="url(#purple)" stroke-width="0.72" opacity="0.68"/>
    <path d="M-20 157 C34 102 68 192 116 137 C161 86 190 194 244 134 C282 92 311 113 340 101" stroke="url(#blue)" stroke-width="0.68" opacity="0.62"/>
  </g>

  <g fill="#a855f7">
    <circle cx="42" cy="126" r="1.1" opacity="0.42"/>
    <circle cx="58" cy="157" r="1.8" opacity="0.72" filter="url(#nodeGlow)"/>
    <circle cx="71" cy="202" r="0.9" opacity="0.46"/>
    <circle cx="84" cy="118" r="1.2" opacity="0.56"/>
    <circle cx="96" cy="230" r="1.0" opacity="0.48"/>
    <circle cx="111" cy="166" r="2.0" opacity="0.92" filter="url(#nodeGlow)"/>
    <circle cx="122" cy="98" r="0.85" opacity="0.44"/>
    <circle cx="137" cy="194" r="1.05" opacity="0.48"/>
    <circle cx="149" cy="142" r="1.45" opacity="0.70"/>
    <circle cx="162" cy="219" r="0.9" opacity="0.42"/>
    <circle cx="176" cy="121" r="1.05" opacity="0.54"/>
    <circle cx="191" cy="175" r="2.2" opacity="0.90" filter="url(#nodeGlow)"/>
    <circle cx="203" cy="90" r="0.85" opacity="0.40"/>
    <circle cx="218" cy="208" r="1.15" opacity="0.54"/>
    <circle cx="232" cy="145" r="1.0" opacity="0.46"/>
    <circle cx="248" cy="111" r="1.55" opacity="0.72" filter="url(#nodeGlow)"/>
    <circle cx="261" cy="182" r="0.9" opacity="0.44"/>
    <circle cx="278" cy="133" r="1.1" opacity="0.58"/>
  </g>

  <g fill="#3b82f6">
    <circle cx="49" cy="184" r="0.9" opacity="0.46"/>
    <circle cx="66" cy="102" r="1.1" opacity="0.50"/>
    <circle cx="79" cy="221" r="1.5" opacity="0.70" filter="url(#nodeGlow)"/>
    <circle cx="103" cy="137" r="0.85" opacity="0.44"/>
    <circle cx="128" cy="205" r="1.0" opacity="0.50"/>
    <circle cx="143" cy="111" r="1.55" opacity="0.68" filter="url(#nodeGlow)"/>
    <circle cx="156" cy="178" r="0.9" opacity="0.44"/>
    <circle cx="181" cy="150" r="1.1" opacity="0.58"/>
    <circle cx="207" cy="197" r="0.85" opacity="0.42"/>
    <circle cx="225" cy="119" r="1.8" opacity="0.82" filter="url(#nodeGlow)"/>
    <circle cx="244" cy="171" r="0.95" opacity="0.46"/>
    <circle cx="270" cy="98" r="1.05" opacity="0.48"/>
    <circle cx="291" cy="154" r="1.45" opacity="0.68" filter="url(#nodeGlow)"/>
  </g>
</svg>
